<?xml version="1.0" encoding="UTF-8" standalone="no"?>
<svg xmlns="http://www.w3.org/2000/svg" xmlns:xlink="http://www.w3.org/1999/xlink" width="128" height="128" viewBox="0 0 128 128">
  <defs>
    <linearGradient id="grad" x1="0%" y1="0%" x2="100%" y2="100%">
      <stop offset="0%" style="stop-color:#000000;stop-opacity:1" />
      <stop offset="100%" style="stop-color:#1a1a1a;stop-opacity:1" />
    </linearGradient>
  </defs>
  <circle cx="64" cy="64" r="60" fill="url(#grad)" stroke="#444444" stroke-width="2"/>
  <circle cx="64" cy="64" r="48" fill="none" stroke="#444444" stroke-width="1"/>
  
  <!-- Internet/Domain Symbol: Globe Lines -->
  <circle cx="64" cy="64" r="36" fill="none" stroke="#ffffff" stroke-width="2" opacity="0.7"/>
  
  <!-- Longitude Lines -->
  <path d="M 64,28 A 36,36 0 0,0 64,100" fill="none" stroke="#ffffff" stroke-width="1.5" opacity="0.7"/>
  <path d="M 28,64 A 36,36 0 0,0 100,64" fill="none" stroke="#ffffff" stroke-width="1.5" opacity="0.7"/>
  <path d="M 46,32 A 36,36 0 0,0 82,96" fill="none" stroke="#ffffff" stroke-width="1.5" opacity="0.7"/>
  <path d="M 32,46 A 36,36 0 0,0 96,82" fill="none" stroke="#ffffff" stroke-width="1.5" opacity="0.7"/>
  
  <!-- Magnifying Glass (Search icon) -->
  <circle cx="88" cy="88" r="22" fill="none" stroke="#4CAF50" stroke-width="4"/>
  <line x1="104" y1="104" x2="116" y2="116" stroke="#4CAF50" stroke-width="6" stroke-linecap="round"/>
  
  <!-- Available/Check Mark -->
  <circle cx="36" cy="36" r="12" fill="#4CAF50" opacity="0.9"/>
  <path d="M 29,36 L 34,41 L 43,32" fill="none" stroke="#ffffff" stroke-width="3" stroke-linecap="round" stroke-linejoin="round"/>
</svg>
